#format: frame checksums
#version: 2
#hash: MD5
#tb 0: 1/8000
#media_type 0: audio
#codec_id 0: pcm_s16le
#sample_rate 0: 8000
#channel_layout_name 0: mono
#stream#, dts,        pts, duration,     size, hash
0,          0,          0,      512,     1024, ab6267df27860c9bcdba558a50c0988d
0,        512,        512,      512,     1024, af2196c341473db78e6c2e4cfd1a8d21
0,       1024,       1024,      512,     1024, 53cfa8c9d8c7f2926fca43afbdc0d26c
0,       1536,       1536,      512,     1024, 8093cdf5773b642ec1765c0aafddb051
0,       2048,       2048,      512,     1024, 4b003dcd765d3e368f79d7e38ade32cf
0,       2560,       2560,      512,     1024, 3a4758bce5961ff04f8c704142ebebc8
0,       3072,       3072,      512,     1024, ee8fead2fac3d0baa79062f0a49331ca
0,       3584,       3584,      512,     1024, b0a06d00b859880d289b3fd750c28dec
0,       4096,       4096,      512,     1024, 7b6379c67b281a34417139fe42e226e5
0,       4608,       4608,      512,     1024, 90f3bc217092008cea1bc551791ae700
0,       5120,       5120,      512,     1024, 5b71772803e6986c414ce22c87e6ecf8
0,       5632,       5632,      512,     1024, 40a5fca9babef811cf6e761afb5939e7
0,       6144,       6144,      512,     1024, bc70f057460deb8b1a7c931f5a48992e
0,       6656,       6656,      512,     1024, 667b1806df6b54bd0f2a31bcfab2a10d
0,       7168,       7168,      512,     1024, 5fe10a9d1545c98d7041e399a6ef2955
0,       7680,       7680,      512,     1024, f5d1c710dcd6a37429b0495297c28e57
0,       8192,       8192,      512,     1024, 47a12e1ee5a8312d3678b5af6ccd518e
0,       8704,       8704,      512,     1024, ad332bf2a088a1092768258e27d367f9
0,       9216,       9216,      512,     1024, 83886417ff3a3824f5e2220843e32d3b
0,       9728,       9728,      512,     1024, 7ae8647bac00538cf4236b90f1aa9366
0,      10240,      10240,      512,     1024, cdb270595e84b90b6acdfdd9a2ba1a37
0,      10752,      10752,      512,     1024, 04acd8f25ff949ebbf95b9615d8738b1
0,      11264,      11264,      512,     1024, 20b70b37577405957fe12ac184321f31
0,      11776,      11776,      512,     1024, 30565802e91d1b4aa0c81ba6e38834e2
0,      12288,      12288,      512,     1024, 63184f854aa841f5b7e028f989dd9888
0,      12800,      12800,      512,     1024, db99da7eea210dbe5c471769ee778243
0,      13312,      13312,      512,     1024, 102ed94dc33336edc8e40e9f3506fb11
0,      13824,      13824,      512,     1024, 6e235be168dda7f1040a7801ab7910e1
0,      14336,      14336,      512,     1024, 6a312f7475a50a83770be92c77658949
0,      14848,      14848,      512,     1024, eae205e2a7e352775df4c95dc900b6d4
0,      15360,      15360,      512,     1024, dcc11ffc42452fb2d33ede04a19b4de3
0,      15872,      15872,      512,     1024, eb59cbffb2a81efa5be24212a9633d6f
0,      16384,      16384,      512,     1024, a6bb6298fa1894977477a4ebad96dd83
0,      16896,      16896,      512,     1024, 04d1edc6b34b3ec8dadec6abe37b3c57
0,      17408,      17408,      512,     1024, dd27a8c4f045a3b17e46d2a414d8daf7
0,      17920,      17920,      512,     1024, 4440bf81a1c4784cdb955d47adba8583
0,      18432,      18432,      512,     1024, 1c873e1a42fe3b977fd2d204b266b44c
0,      18944,      18944,      512,     1024, b0a254fdd97abee541a7270e88fcbd70
0,      19456,      19456,      512,     1024, 486f13c40e57ad2d43f5d8b41b9d0fcc
0,      19968,      19968,      512,     1024, f42d5dd2f8c56d08b62d679b5a3b5003
0,      20480,      20480,      512,     1024, 2c2f24321ea2f9994e1a9e6d8bf829a4
0,      20992,      20992,      512,     1024, b960cd1c401204aef6bee12ea39f07b6
0,      21504,      21504,      512,     1024, 99e201933f349bb938238bc59d5f88bc
0,      22016,      22016,      512,     1024, d33a7972d71e07d3ce54c953f3956826
0,      22528,      22528,      512,     1024, 409aee4caa8dee74583ee98019669e18
0,      23040,      23040,      512,     1024, 766d532061eee2c6d85b2c62be171482
0,      23552,      23552,      512,     1024, e438886eec0da85c37fbfdde5fd64967
0,      24064,      24064,      512,     1024, 24b3eee61d48a4c39b2c2b495ed50c8a
0,      24576,      24576,      512,     1024, 67095d3d5f7983eb63684c4f8abadac4
0,      25088,      25088,      512,     1024, a16c1bc2fd1ba3a3197294e1d6feb2e9
0,      25600,      25600,      512,     1024, 3d26798f81f6322d446fd2039adf4f4c
0,      26112,      26112,      512,     1024, e3a54536687a8c5a81b1de8fa36f569d
0,      26624,      26624,      512,     1024, 52a2cbe631fc8d80e80e485319660319
0,      27136,      27136,      512,     1024, 01bd14c293a40fe903bf0dab4bdc1783
0,      27648,      27648,      512,     1024, fbf3cd89b59352cc7313082e3afc2e89
0,      28160,      28160,      512,     1024, 8d4a646a03cbb9eaf7db2507361546da
0,      28672,      28672,      512,     1024, 5cd3b8746db5ae9b6e442638088b9284
0,      29184,      29184,      512,     1024, 230c891c0dffc6900bbccfef4879163a
0,      29696,      29696,      512,     1024, 34ba9ce0031b7dbf043a5e762990bcd5
0,      30208,      30208,      512,     1024, be36f34aa9311a9877d0ea89808e6f33
0,      30720,      30720,      512,     1024, bf9e611539fbcf5f5302da08029eed43
0,      31232,      31232,      512,     1024, 349594372ee875423a196d9be2249eed
0,      31744,      31744,      512,     1024, f1c2d8bb40775ddc77e87e8ceb2aa1ff
0,      32256,      32256,      512,     1024, 7b98e1c5e7b48757f7c6a53eb018d8af
0,      32768,      32768,      512,     1024, 8b3fe512729e3d0def32533f05444532
0,      33280,      33280,      512,     1024, 12fa25f0a225075726f0649cff040150
0,      33792,      33792,      512,     1024, 3cb977b01599bfda5dc1e8e810375f4b
0,      34304,      34304,      512,     1024, 14c036df857610458f283fc520ccdc4d
0,      34816,      34816,      512,     1024, 36cdbb7aab24e8d0240fe71a1641f1e9
0,      35328,      35328,      512,     1024, 5908c9532e41eef90e9e585ca8bff130
0,      35840,      35840,      512,     1024, 3f56d38a1c42513af89515f74ef7be18
0,      36352,      36352,      512,     1024, 3fa866675b90653456acbc57202d5989
0,      36864,      36864,      512,     1024, 5f621fbf00c7dcffc82288beb4458d71
0,      37376,      37376,      512,     1024, 55ddf4d3bfb30a284d1f6ea6ff23833f
0,      37888,      37888,      512,     1024, 335ee8c5e09a6d96436894a3b4591254
0,      38400,      38400,      512,     1024, f01a522f6d001e4f99abfcfa09561075
0,      38912,      38912,      512,     1024, a021f156f3ba7bb3f04e7f3834cbfcac
0,      39424,      39424,      512,     1024, 4a21460b2bf78a3ebf7d156f00b0312c
0,      39936,      39936,      512,     1024, 45dd21c73abae789e262c75844efbb70
0,      40448,      40448,      512,     1024, 44fd9a05ea89a8d5f77ae2c90d3cd972
0,      40960,      40960,      512,     1024, 91c873be3d92318cb6279ca7ba7e7b9c
0,      41472,      41472,      512,     1024, 6d59162c1db29150f3dffc6a88aed17e
0,      41984,      41984,      512,     1024, 130ac104c15837f74e9dad8fba23ca5a
0,      42496,      42496,      512,     1024, 34e952af671ece425e1e950a83a349ee
0,      43008,      43008,      512,     1024, f570f6338a0f6bfd43071d287f39b467
0,      43520,      43520,      512,     1024, eb47276a97a034b32b6c65b1751e9b91
0,      44032,      44032,      512,     1024, 86e0b5c83e9bbb1852d6e5bfacc69d47
0,      44544,      44544,      512,     1024, 11b0ddc71548b29a3aa89e89b5ac2e28
0,      45056,      45056,      512,     1024, bd40be07c166167d47beaa35969b08f9
0,      45568,      45568,      512,     1024, 8649f5c492c8225fd6c028c8fb005320
0,      46080,      46080,      512,     1024, df426ade299a220709a92d8dc1656431
0,      46592,      46592,      512,     1024, a2d49def61a4886d703727c2a07237d0
0,      47104,      47104,      512,     1024, fe170310e66967017683c97638f9cfde
0,      47616,      47616,      384,      768, 853e07d9ce59336dae7d6e30f35ce09a
